<svg xmlns="http://www.w3.org/2000/svg" viewBox="0 0 543 213" width="543" height="213">
  <g fill="#120909" fill-rule="evenodd">
    <path d="M 142 106 L 142 192 L 173 192 L 174 143 L 171 130 L 166 121 L 161 116 Z "/>
    <path d="M 171 60 L 142 60 L 142 98 L 154 93 L 164 83 L 170 71 Z "/>
    <path d="M 259 67 L 251 77 L 249 82 L 248 90 L 278 90 L 280 84 L 284 80 L 294 77 L 295 78 L 301 78 L 307 81 L 311 87 L 310 93 L 306 97 L 299 99 L 274 102 L 263 105 L 255 109 L 248 116 L 244 128 L 245 141 L 250 151 L 254 155 L 261 159 L 276 162 L 296 159 L 304 155 L 310 150 L 313 159 L 318 158 L 319 159 L 344 159 L 341 149 L 341 88 L 340 87 L 340 81 L 335 70 L 328 64 L 319 60 L 310 58 L 296 58 L 295 57 L 294 58 L 276 59 Z M 310 114 L 309 130 L 306 136 L 302 140 L 297 142 L 284 142 L 277 137 L 276 127 L 282 120 L 294 116 L 303 115 L 308 113 Z "/>
    <path d="M 200 57 L 199 58 L 188 59 L 181 63 L 182 71 L 186 80 L 193 88 L 199 92 L 208 96 L 220 99 L 223 101 L 220 105 L 203 110 L 193 116 L 187 122 L 183 130 L 182 134 L 182 151 L 183 154 L 190 160 L 203 162 L 204 161 L 212 161 L 224 156 L 235 145 L 238 140 L 243 125 L 244 104 L 241 89 L 234 74 L 224 64 L 213 59 L 201 58 Z "/>
    <path d="M 352 60 L 352 159 L 383 159 L 383 106 L 387 96 L 393 90 L 403 86 L 414 86 L 419 88 L 419 158 L 420 159 L 450 159 L 451 158 L 451 127 L 459 119 L 461 120 L 479 151 L 485 159 L 522 159 L 521 156 L 482 98 L 517 60 L 482 60 L 480 61 L 452 93 L 451 92 L 451 23 L 419 23 L 419 58 L 418 59 L 404 59 L 396 62 L 387 70 L 383 77 L 382 76 L 382 60 Z "/>
    <path d="M 56 23 L 41 30 L 29 42 L 25 52 L 25 57 L 24 58 L 24 65 L 26 74 L 32 84 L 42 92 L 62 100 L 77 103 L 95 109 L 102 115 L 104 120 L 103 125 L 98 131 L 87 135 L 75 135 L 67 133 L 59 127 L 56 122 L 55 114 L 20 114 L 21 125 L 24 134 L 28 141 L 37 150 L 47 156 L 60 160 L 83 162 L 84 161 L 100 160 L 115 155 L 123 150 L 131 142 L 137 129 L 138 111 L 136 103 L 133 97 L 124 88 L 111 81 L 99 77 L 76 72 L 64 67 L 59 61 L 59 56 L 67 48 L 70 47 L 84 47 L 92 50 L 97 55 L 99 59 L 99 63 L 134 63 L 133 54 L 130 45 L 127 40 L 118 31 L 107 25 L 98 22 L 88 21 L 87 20 L 72 20 Z "/>
  </g>
</svg>
